<svg xmlns="http://www.w3.org/2000/svg" viewBox="0 0 61.47 121.55"><defs><style>.edc45339-08d2-43f1-826f-5490f2f5b590{fill:#444;}</style></defs><title>101 sites graphic</title><g id="33b33fc8-998d-4abf-b587-6b9f00c8977b" data-name="Layer 2"><g id="5c4d6699-0071-4108-950c-f7d652c5da9f" data-name="Layer 1"><path class="edc45339-08d2-43f1-826f-5490f2f5b590" d="M35.83,14.15V8.61a2.24,2.24,0,0,0,2.08-2.23V2.25A2.25,2.25,0,0,0,35.67,0H25.81a2.25,2.25,0,0,0-2.25,2.25V6.38a2.24,2.24,0,0,0,2.08,2.23v5.53a30.73,30.73,0,0,0,0,60.61v43.57a2.25,2.25,0,0,0,1,1.91,7.73,7.73,0,0,0,4.05,1.3,7.73,7.73,0,0,0,4.05-1.3,2.25,2.25,0,0,0,1-1.91V74.76a30.73,30.73,0,0,0,0-60.61ZM24.56,6.38V2.25A1.25,1.25,0,0,1,25.81,1h9.86a1.25,1.25,0,0,1,1.25,1.25V6.38a1.25,1.25,0,0,1-1.25,1.25H25.81A1.25,1.25,0,0,1,24.56,6.38ZM34.83,8.63V14l-.36,0-1.32-.13-.56,0c-.62,0-1.23-.06-1.86-.06s-1.24,0-1.86.06l-.55,0L27,14l-.36,0V8.63Zm0,109.7a1.26,1.26,0,0,1-.58,1.07,6.74,6.74,0,0,1-3.52,1.15,6.74,6.74,0,0,1-3.52-1.15,1.26,1.26,0,0,1-.58-1.07V74.92L27,75q.66.08,1.33.13l.54,0c.62,0,1.24.06,1.87.06s1.25,0,1.87-.06l.54,0L34.48,75l.36,0Zm.31-44.47c-.62.09-1.25.16-1.89.21l-.48,0a30.4,30.4,0,0,1-4.08,0l-.48,0C27.59,74,27,74,26.33,73.86a29.74,29.74,0,0,1,0-58.82c.63-.09,1.26-.16,1.89-.21l.48,0a30.42,30.42,0,0,1,4.08,0l.48,0c.63.05,1.27.12,1.89.21a29.74,29.74,0,0,1,0,58.82Zm-8.31-68a.5.5,0,0,0,.5-.5V3a.5.5,0,1,0-1,0V5.37A.5.5,0,0,0,26.83,5.87Zm7,0a.5.5,0,0,0,.5-.5V3a.5.5,0,0,0-1,0V5.37A.5.5,0,0,0,33.82,5.87Zm-3.73,0a.5.5,0,0,0,.5-.5V3a.5.5,0,0,0-1,0V5.37A.5.5,0,0,0,30.09,5.87Zm18.19,24a23,23,0,0,0-3.78-3.61,22.61,22.61,0,0,0-13.77-4.63A22.84,22.84,0,0,0,7.93,44.45a22.61,22.61,0,0,0,4.63,13.77A22.81,22.81,0,1,0,48.28,29.88ZM8.93,44.45A21.83,21.83,0,0,1,30.74,22.64a21.6,21.6,0,0,1,12.7,4.08l-8.69,8.69A6.51,6.51,0,0,0,30.52,34c-4.68,0-7.38,3.84-7.38,10.25a19.46,19.46,0,0,0,.17,2.6l-4.59,4.59V34.85a.55.55,0,0,0-.53-.56h-2l-4.22,3.54a.61.61,0,0,0-.15.53L12,39.8a.48.48,0,0,0,.59.38l2.58-.56v14a.56.56,0,0,0,.56.56H16L13,57.16A21.6,21.6,0,0,1,8.93,44.45ZM32.16,38,27,43.15c.21-3.64,1.45-5.69,3.51-5.69A2.61,2.61,0,0,1,32.16,38ZM16.45,60.93a21.94,21.94,0,0,1-2.84-3l3.75-3.76,1.35-1.35,4.8-4.8L27,44.59l1.94-1.94,3.91-3.91,2.63-2.63,8.77-8.77a21.94,21.94,0,0,1,3,2.84L34,43.34,28,49.41l-2.67,2.67L17,60.35ZM34.06,44.74C34,48.79,32.69,51,30.52,51a2.64,2.64,0,0,1-1.94-.83ZM30.74,66.26a21.84,21.84,0,0,1-13.51-4.69L26,52.81a6.45,6.45,0,0,0,4.53,1.69c4.69,0,7.38-3.84,7.38-10.25a18.79,18.79,0,0,0-.25-3.11l2.83-2.83s0,0,0,0l.18,1.43a.48.48,0,0,0,.59.38l2.58-.56v14a.56.56,0,0,0,.56.56h2.52a.55.55,0,0,0,.53-.56V34.85a.55.55,0,0,0-.53-.56h-2l-2.12,1.78,5.13-5.13A21.81,21.81,0,0,1,30.74,66.26Z"/></g></g></svg>