<svg xmlns="http://www.w3.org/2000/svg" viewBox="0 0 61.47 121.55"><defs><style>.\39 4c71529-61cc-426b-83cf-09acb2034e3d{fill:#444;}</style></defs><title>21 sites graphic</title><g id="92c30229-0ecb-4901-910d-83136681ec8e" data-name="Layer 2"><g id="82311361-53bc-46a5-819d-e3dcfd683995" data-name="Layer 1"><path class="94c71529-61cc-426b-83cf-09acb2034e3d" d="M35.83,14.15V8.61a2.24,2.24,0,0,0,2.08-2.23V2.25A2.25,2.25,0,0,0,35.67,0H25.81a2.25,2.25,0,0,0-2.25,2.25V6.38a2.24,2.24,0,0,0,2.08,2.23v5.53a30.73,30.73,0,0,0,0,60.61v43.57a2.25,2.25,0,0,0,1,1.91,7.73,7.73,0,0,0,4.05,1.3,7.73,7.73,0,0,0,4.05-1.3,2.25,2.25,0,0,0,1-1.91V74.76a30.73,30.73,0,0,0,0-60.61ZM24.56,6.38V2.25A1.25,1.25,0,0,1,25.81,1h9.86a1.25,1.25,0,0,1,1.25,1.25V6.38a1.25,1.25,0,0,1-1.25,1.25H25.81A1.25,1.25,0,0,1,24.56,6.38ZM34.83,8.63V14l-.36,0-1.32-.13-.56,0c-.62,0-1.23-.06-1.86-.06s-1.24,0-1.86.06l-.55,0L27,14l-.36,0V8.63Zm0,109.7a1.26,1.26,0,0,1-.58,1.07,6.74,6.74,0,0,1-3.52,1.15,6.74,6.74,0,0,1-3.52-1.15,1.26,1.26,0,0,1-.58-1.07V74.92L27,75q.66.08,1.33.13l.54,0c.62,0,1.24.06,1.87.06s1.25,0,1.87-.06l.54,0L34.48,75l.36,0Zm.31-44.47c-.62.09-1.25.16-1.89.21l-.48,0a30.4,30.4,0,0,1-4.08,0l-.48,0C27.59,74,27,74,26.33,73.86a29.74,29.74,0,0,1,0-58.82c.63-.09,1.26-.16,1.89-.21l.48,0a30.42,30.42,0,0,1,4.08,0l.48,0c.63.05,1.26.12,1.89.21a29.74,29.74,0,0,1,0,58.82Zm13.14-44a23,23,0,0,0-3.78-3.61,22.61,22.61,0,0,0-13.77-4.63A22.84,22.84,0,0,0,7.93,44.45a22.61,22.61,0,0,0,4.63,13.77A22.81,22.81,0,1,0,48.28,29.88ZM8.93,44.45A21.83,21.83,0,0,1,30.74,22.64a21.6,21.6,0,0,1,12.7,4.08L36.27,33.9l-1.11.94a.69.69,0,0,0-.17.35l-3.07,3.07a7.85,7.85,0,0,0,0-.8c0-4.16-3.08-7.66-8.59-7.66-4.58,0-7.59,3.77-7.59,3.77a.76.76,0,0,0,0,1l1.85,1.85a.7.7,0,0,0,1,0A6.31,6.31,0,0,1,23,34.14c2.77,0,4.08,1.77,4.08,3.5a7.35,7.35,0,0,1-2,4.27c-2.58,3.43-7.43,9.74-10,12.82V55L13,57.16A21.6,21.6,0,0,1,8.93,44.45ZM13.62,58l1.8-1.8L28.93,42.65l2.54-2.54,3.61-3.61,6.33-6.33,2.84-2.84a21.94,21.94,0,0,1,3,2.84l-3.12,3.12L39.35,38,25.15,52.24l-8.69,8.69A21.94,21.94,0,0,1,13.62,58Zm17.12,8.3a21.84,21.84,0,0,1-13.51-4.69l5.21-5.21h8.63a.76.76,0,0,0,.73-.73V53a.76.76,0,0,0-.73-.73H26.56L39.35,39.45V55.63a.73.73,0,0,0,.73.73H43.4a.72.72,0,0,0,.69-.73V34.71l3.77-3.77A21.81,21.81,0,0,1,30.74,66.26ZM26.83,5.87a.5.5,0,0,0,.5-.5V3a.5.5,0,1,0-1,0V5.37A.5.5,0,0,0,26.83,5.87Zm3.26,0a.5.5,0,0,0,.5-.5V3a.5.5,0,0,0-1,0V5.37A.5.5,0,0,0,30.09,5.87Zm3.73,0a.5.5,0,0,0,.5-.5V3a.5.5,0,0,0-1,0V5.37A.5.5,0,0,0,33.82,5.87Z"/></g></g></svg>