<svg xmlns="http://www.w3.org/2000/svg" viewBox="0 0 28.35 20.13"><defs><style>.\37 0ca2db7-ff0c-44da-9d4d-dc2dd0c2b191{fill:#666;}</style></defs><title>agency</title><g id="886540e5-ae0f-482b-9029-2791796cd559" data-name="Layer 2"><g id="dd734a57-463c-4c39-b67c-4d6c19a72f08" data-name="Layer 2"><path class="70ca2db7-ff0c-44da-9d4d-dc2dd0c2b191" d="M18.95,11.41a.5.5,0,0,0-.64.3s-1.57,4.31-2,5.45a2.89,2.89,0,0,1-1.61,1.92V14.65a.5.5,0,0,0-.5-.5h0a.5.5,0,0,0-.5.5v4.55a.94.94,0,0,0,.93.94.92.92,0,0,0,.37-.08,3.94,3.94,0,0,0,2.26-2.6c.44-1.08,2-5.22,2-5.4A.5.5,0,0,0,18.95,11.41ZM28.09,1c-.42-.8-1.44-1.5-3.93-.35-1.55.72-5.25,3.07-6.17,3.66-1.18-.4-6.6-2.24-7.62-2.64a4.53,4.53,0,0,0-3.12-.4,5.05,5.05,0,0,0-1.18.59,1,1,0,0,0-.14,1.65L11.5,8.56,7,11.52c-1.44.88-1.86.93-2.76.68C3.5,12,2.51,11.66,2,11.47a1.49,1.49,0,0,0-1.54.33l-.09.09a1.09,1.09,0,0,0,.09,1.66c1,.79,3.5,2.54,4.31,3a3.77,3.77,0,0,0,1.82.41,5.35,5.35,0,0,0,2.64-.68c.83-.49,15.74-10,17.17-11.2C28.16,3.56,28.74,2.18,28.09,1ZM25.73,4.29C24.47,5.35,10,14.64,8.69,15.4a4,4,0,0,1-3.46.26c-.71-.4-3.11-2.08-4.19-2.91v-.14l.09-.09a.49.49,0,0,1,.34-.14l.17,0c.67.24,1.61.57,2.32.76,1.32.36,2,.12,3.56-.8L12.59,9a.5.5,0,0,0,.06-.79l-6-5.62a4.14,4.14,0,0,1,.94-.48A3.56,3.56,0,0,1,10,2.55c1.16.46,7.62,2.65,7.89,2.74a.5.5,0,0,0,.43-.05s4.57-2.94,6.25-3.72C26,.85,26.89.82,27.21,1.42S27.11,3.14,25.73,4.29ZM9.76,12a.44.44,0,0,0-.76.44l.11.19a.44.44,0,0,0,.76-.44Zm2.06-1.38a.4.4,0,0,0-.55-.14l-.07,0a.4.4,0,0,0-.14.55l.15.26a.4.4,0,0,0,.55.14l.07,0A.4.4,0,0,0,12,10.9Zm2.08-1.35a.4.4,0,0,0-.55-.14l-.07,0a.4.4,0,0,0-.14.55l.15.26a.4.4,0,0,0,.55.14l.07,0a.4.4,0,0,0,.14-.55ZM16,7.94a.4.4,0,0,0-.55-.14l-.07,0a.4.4,0,0,0-.14.55l.15.26a.4.4,0,0,0,.55.14l.07,0a.4.4,0,0,0,.14-.55Zm2.08-1.35a.4.4,0,0,0-.55-.14l-.07,0a.4.4,0,0,0-.14.55l.15.26a.4.4,0,0,0,.55.14l.07,0a.4.4,0,0,0,.14-.55Zm2.08-1.35a.4.4,0,0,0-.55-.14l-.07,0a.4.4,0,0,0-.14.55l.15.26a.4.4,0,0,0,.55.14l.07,0a.4.4,0,0,0,.14-.55Zm2.1-1.32a.44.44,0,1,0-.76.44l.11.19a.44.44,0,1,0,.76-.44Z"/></g></g></svg>