<svg xmlns="http://www.w3.org/2000/svg" viewBox="0 0 37.97 22.52"><defs><style>.a39706ef-2324-4ca1-a5b1-cdfc0fd2a61a{fill:#43b19c;}</style></defs><title>developer</title><g id="bfd002e8-6d65-4d43-9760-93e0c7f6440b" data-name="Layer 2"><g id="a4c2af27-70d9-4f5a-8e33-3d204e621a1a" data-name="Layer 2"><path class="a39706ef-2324-4ca1-a5b1-cdfc0fd2a61a" d="M12.46,13.91h2.48a.5.5,0,0,0,0-1H12.46a.5.5,0,0,0,0,1ZM36,13.59a4.82,4.82,0,0,0-3.27-1.17l-1.06.05.09-.22a3.33,3.33,0,0,0,1-3.68,13.08,13.08,0,0,0-1.42-3.07A1.4,1.4,0,0,0,32,5.08a7.09,7.09,0,0,0,.79-3.66C32.67,0,31,0,30.45,0a22.89,22.89,0,0,0-4.1,1.17C23.72,2,23.58,2.29,23.5,2.48a.61.61,0,0,0,0,.47c0,.06.72,1.41,1.71,1.28a1.59,1.59,0,0,0,1-.56C27.71,4.68,28.14,7,28.25,8a5.18,5.18,0,0,1-1.86,4.64,6.48,6.48,0,0,1-5,1.32,1.52,1.52,0,0,1-1.12-.45,2.7,2.7,0,0,1-.33-2A2.6,2.6,0,0,1,21,9.59,3.75,3.75,0,0,0,21.64,9a1.23,1.23,0,0,0,.18-1.34c-.16-.3-.63-.79-1.92-.73a28.72,28.72,0,0,1-3.75-.35c-1.05-.14-2-.26-2.43-.26-.77,0-2.38,0-2.38,1.81A1.63,1.63,0,0,0,12.5,9.78a8.72,8.72,0,0,0-3.9,7A1.68,1.68,0,0,0,9,18.07a2.45,2.45,0,0,0,1.82.57,4.08,4.08,0,0,0,4.08,3.87h0A4.07,4.07,0,0,0,19,18.64h4a8.29,8.29,0,0,0,4.29-.92,3.13,3.13,0,0,0,1.33.68,4.1,4.1,0,0,0,4.09,3.87h.22A4.1,4.1,0,0,0,36.81,18l.72-.08a.5.5,0,0,0,.43-.59A7.44,7.44,0,0,0,36,13.59Zm-18.89,7a3.08,3.08,0,0,1-2.19.92h0a3.08,3.08,0,0,1-3.08-2.87H18A3.07,3.07,0,0,1,17.1,20.6Zm5.9-3H10.83c-.28,0-.88,0-1.1-.25a.75.75,0,0,1-.12-.58,7.75,7.75,0,0,1,5-7,.5.5,0,0,0-.2-1H12.92c-.1,0-.58-.05-.58-.74s.19-.81,1.38-.81c.4,0,1.32.12,2.3.25A28.06,28.06,0,0,0,20,7.9c.7,0,.95.14,1,.21s0,.15-.1.27a3,3,0,0,1-.47.45,3.57,3.57,0,0,0-1.47,2.6,3.54,3.54,0,0,0,.56,2.72,2.49,2.49,0,0,0,1.82.81,7.46,7.46,0,0,0,5.79-1.58,6.19,6.19,0,0,0,2.18-5.49c-.14-1.24-.72-4.24-3-5.3a.5.5,0,0,0-.65.21c-.08.14-.3.43-.51.45s-.29-.17-.47-.4a20.46,20.46,0,0,1,2-.72A23.36,23.36,0,0,1,30.45,1c1.33,0,1.38.38,1.4.54a6.69,6.69,0,0,1-.56,2.89,1.13,1.13,0,0,1-.79.13.5.5,0,0,0-.49.77,15.39,15.39,0,0,1,1.74,3.49A2.41,2.41,0,0,1,31,11.53a.5.5,0,0,0-.19.24,11.14,11.14,0,0,1-2.54,4A6.92,6.92,0,0,1,23,17.64Zm12,2.6a3.09,3.09,0,0,1-5.38-1.7l.34,0c1.33,0,4-.26,5.82-.45A3.08,3.08,0,0,1,35,20.24Zm-5-2.68a3.34,3.34,0,0,1-1.8-.42c.26-.19.51-.38.78-.6a9.75,9.75,0,0,0,2.22-3l1.6-.08a3.8,3.8,0,0,1,2.55.93A5.82,5.82,0,0,1,36.84,17C35.39,17.15,31.58,17.56,30,17.56Zm-14.14-3.3H11.78a.5.5,0,0,0,0,1h4.06a.5.5,0,0,0,0-1Zm-.9,1.58H12.46a.5.5,0,0,0,0,1h2.48a.5.5,0,0,0,0-1Zm-9-2.33a.5.5,0,0,0-.5-.5H.5a.5.5,0,0,0,0,1H5.4A.5.5,0,0,0,5.9,13.51Zm1,2.21H2.69a.5.5,0,0,0,0,1H6.9a.5.5,0,0,0,0-1Zm0-5.42H2.69a.5.5,0,0,0,0,1H6.9a.5.5,0,0,0,0-1Z"/></g></g></svg>