<svg xmlns="http://www.w3.org/2000/svg" viewBox="0 0 26.08 20.94"><defs><style>.\35 4be5614-fa6d-4ea5-9d3c-1d0f4c699101{fill:#666;}</style></defs><title>enterprise</title><g id="f612df2a-f080-4145-b04e-96e0b9faaca2" data-name="Layer 2"><g id="47617139-9b64-4a42-9b6d-2b706f43b579" data-name="Layer 2"><path class="54be5614-fa6d-4ea5-9d3c-1d0f4c699101" d="M17.14,4.7a2.65,2.65,0,1,0-.7,5.26l.35,0a2.65,2.65,0,0,0,.35-5.29Zm1.29,2.85a1.65,1.65,0,1,1-1.64-1.87H17A1.66,1.66,0,0,1,18.43,7.55ZM25.86.41A1.06,1.06,0,0,0,25,0L19.75.13c-.12,0-.23,0-.35,0h0a.54.54,0,0,0-.17,0,5.2,5.2,0,0,0-2.69,1.19L10.94,6.15h0L8.64,5.66a3.62,3.62,0,0,0-2.81.57L2.71,8.43a1.06,1.06,0,0,0,.15,1.82L5.31,11.4A6.79,6.79,0,0,0,6.77,15,6.79,6.79,0,0,0,9.9,17.4l.48,2.67a1,1,0,0,0,.68.8,1.07,1.07,0,0,0,.36.06,1,1,0,0,0,.67-.25L15,18.24a3.62,3.62,0,0,0,1.29-2.56l.13-2.31s0,0,0,0l6-4.13a5.2,5.2,0,0,0,1.84-2.28.49.49,0,0,0,.08-.17s0,0,0,0,.09-.21.13-.33l1.49-5A1.06,1.06,0,0,0,25.86.41ZM3.28,9.25,6.4,7.06a2.61,2.61,0,0,1,2-.42L10,7,5.82,10.53Zm12,6.38a2.62,2.62,0,0,1-.93,1.85l-3,2.41-.5-2.75L15.4,14Zm6.61-7.24-11.79,8a5.93,5.93,0,0,1-2.58-2,5.92,5.92,0,0,1-1.25-3L17.14,2.14a4.2,4.2,0,0,1,1.75-.88,6.94,6.94,0,0,0,1.44,3.4,7,7,0,0,0,2.91,2.27A4.2,4.2,0,0,1,21.93,8.38ZM23.62,6a6,6,0,0,1-2.49-2,6,6,0,0,1-1.24-2.91l5.19-.06ZM4.3,16.31.2,19.45a.5.5,0,0,0-.09.7c.08.1.13.18.25.18.34,0,1.19-.65,4.56-3.23ZM6.84,17l-3.53,2.7a.5.5,0,1,0,.61.79l3.53-2.7A.5.5,0,0,0,6.84,17ZM1,17.26a.5.5,0,0,0,.3-.1l3.53-2.7a.5.5,0,0,0-.61-.79L.74,16.37a.5.5,0,0,0,.3.9Z"/></g></g></svg>