<svg xmlns="http://www.w3.org/2000/svg" viewBox="0 0 10 18"><defs><style>.\39 814cb86-d0a2-411a-8708-6804697dfc94{fill:#666;}</style></defs><title>free</title><g id="0df37446-931d-45a8-9e93-c471aa2178a4" data-name="Layer 2"><g id="bc20d458-373a-4e59-aeb3-0e03e6e40580" data-name="Layer 2"><path class="9814cb86-d0a2-411a-8708-6804697dfc94" d="M4.63,4.63h.22a2.31,2.31,0,1,0-.22,0ZM4.51,1h.13a1.31,1.31,0,1,1-.13,0ZM10,17.38A13.26,13.26,0,0,0,8.19,13a10.35,10.35,0,0,0-1.6-1.86c-1-1-1.88-1.86-1.88-3.28V6.31l.51.28L7.88,9.95a.5.5,0,1,0,.78-.62L5.94,5.89a.51.51,0,0,0-.15-.13L4.57,5.1a2,2,0,0,0-2.77.52L.48,7a.5.5,0,0,0-.14.35v3a.5.5,0,0,0,1,0V7.51L2.52,6.32c.53-.53.77-.67,1.19-.52V7.87c0,1.83,1.11,2.93,2.18,4a9.45,9.45,0,0,1,1.46,1.68A12.35,12.35,0,0,1,9,17.62.5.5,0,0,0,9.5,18h.12A.5.5,0,0,0,10,17.38ZM4.07,10.53a.5.5,0,0,0-.58.4,12.77,12.77,0,0,1-1,3.19A18,18,0,0,1,.15,16.87a.5.5,0,1,0,.7.71,18.63,18.63,0,0,0,2.45-3,13.51,13.51,0,0,0,1.16-3.51A.5.5,0,0,0,4.07,10.53Z"/></g></g></svg>