<svg xmlns="http://www.w3.org/2000/svg" viewBox="0 0 27.86 18"><defs><style>.f6b9d526-df9e-4491-994f-5d9088911498{fill:#666;}</style></defs><title>freelancer</title><g id="6d811af1-1ec9-4285-acdb-2a59a949ed85" data-name="Layer 2"><g id="c0453686-2e5c-491c-a43d-0410057173d7" data-name="Layer 2"><path class="f6b9d526-df9e-4491-994f-5d9088911498" d="M26.43,7.42H22.37c-.13-.28-.34-.69-.66-1.34s-.76-1.5-.91-1.84A2.11,2.11,0,0,0,18.66,3H15V1.43A1.43,1.43,0,0,0,13.61,0H1.43A1.43,1.43,0,0,0,0,1.43V13.68a1.43,1.43,0,0,0,1.43,1.43h.83a2.86,2.86,0,0,0,5.31,1.48,2.86,2.86,0,0,0,5.32-1.48h.72a1.42,1.42,0,0,0,.91-.33,1.3,1.3,0,0,0,.85.33h4.47a2.87,2.87,0,1,0,5.74,0h.85a1.43,1.43,0,0,0,1.43-1.43V8.85A1.43,1.43,0,0,0,26.43,7.42ZM18.66,4a1.13,1.13,0,0,1,1.22.69c.15.34.55,1.13.93,1.88l.45.89H15V4ZM1.43,1H13.61a.43.43,0,0,1,.43.43V9.52H1V1.43A.43.43,0,0,1,1.43,1Zm3.7,16A1.87,1.87,0,1,1,7,15.13,1.87,1.87,0,0,1,5.13,17ZM10,17a1.87,1.87,0,1,1,1.87-1.87A1.87,1.87,0,0,1,10,17Zm3.59-2.88H12.7a2.85,2.85,0,0,0-5.12-.47,2.85,2.85,0,0,0-5.12.47h-1A.43.43,0,0,1,1,13.68v-.93h.84a.5.5,0,0,0,0-1H1V10.52H14v3.17A.43.43,0,0,1,13.61,14.12ZM22.71,17a1.87,1.87,0,1,1,1.87-1.87A1.87,1.87,0,0,1,22.71,17Zm3.72-2.88h-1a2.86,2.86,0,0,0-5.35,0H15.37a.32.32,0,0,1-.32-.32V8.42H26.43a.43.43,0,0,1,.43.43v1.58H25.29a.5.5,0,0,0,0,1h1.57v2.26A.43.43,0,0,1,26.43,14.12Z"/></g></g></svg>