<svg xmlns="http://www.w3.org/2000/svg" viewBox="0 0 130.91 99.29"><defs><style>.\34 a9d812e-ed33-4d2b-bed4-a5734a22cd57{fill:#444;}</style></defs><title>hacker icon</title><g id="d1af3684-7590-4eb4-9a3d-34e59d99cd7e" data-name="Layer 2"><g id="25fc40d1-5bbf-4de2-99a0-419a45b8a41e" data-name="Layer 1"><path class="4a9d812e-ed33-4d2b-bed4-a5734a22cd57" d="M130.88,88.08a.5.5,0,0,0-.29-.3,22,22,0,0,1-11.72-10.3c2.4-.36,9.6-1.7,10.3-4.87a.5.5,0,0,0-.27-.56,39.22,39.22,0,0,1-4.44-2.74c-3.63-2.47-7.39-5-12.49-3.87a63.33,63.33,0,0,0-11.31,4.29,79.43,79.43,0,0,1-9.42-5.53c-5.52-4-11-2.82-15.59-1.09-.73.27-1.5.58-2.32.9-4.17,1.65-9.36,3.71-13.6,3.26A23.88,23.88,0,0,1,53,64.91c-3.54-1.62-7.55-3.44-12.14-3.34-7.66.19-15.12,4.12-15.43,4.28a.5.5,0,0,0-.23.25L19.94,78.75a.5.5,0,0,0,.11.54s4.9,4.9,9.87,9.69L31,90c4.48,4.36,9.51,9.25,15.41,9.25a10.7,10.7,0,0,0,1.71-.14c3.5-.57,5.16-3.42,6.75-6.18,1.7-2.94,3.31-5.71,7-5.71,2,0,3.14,1.37,4.85,3.44.59.72,1.26,1.53,2,2.36l.16.17c3,3.18,8,8.51,14.35,4.46,6.51-4.15,11.88-10.07,17.37-19.14,5.1,7.24,12.6,12.85,18.47,13.75,8.71,1.34,11.57-3.61,11.69-3.82A.5.5,0,0,0,130.88,88.08Zm-11.57,3.24c-4.88-.75-12.71-5.79-18.24-14a.51.51,0,0,0-.43-.22.5.5,0,0,0-.42.24c-5.54,9.3-10.92,15.31-17.45,19.47-5.65,3.6-10.12-1.16-13.08-4.31l-.16-.17c-.76-.81-1.42-1.61-2-2.31-1.75-2.12-3.13-3.8-5.62-3.8-4.3,0-6.12,3.15-7.89,6.21-1.55,2.68-3,5.2-6,5.69-6.15,1-11.52-4.23-16.26-8.84l-1.09-1.06C26.27,84.08,22,79.85,21,78.83l5-12.18c1.12-.57,8-3.92,14.83-4.08,4.35-.12,8.26,1.68,11.7,3.25a24.51,24.51,0,0,0,7.08,2.46c4.49.48,9.81-1.63,14.08-3.32.81-.32,1.58-.63,2.3-.9,4.36-1.64,9.51-2.8,14.65,1a82.9,82.9,0,0,0,9.78,5.73.5.5,0,0,0,.44,0,65.15,65.15,0,0,1,11.31-4.32c4.67-1.06,8.09,1.26,11.7,3.72a43.71,43.71,0,0,0,4.17,2.61c-1.09,2.24-7.5,3.52-10,3.83a.5.5,0,0,0-.4.68,22.26,22.26,0,0,0,12,11.22C128.71,89.63,125.8,92.32,119.31,91.32ZM47,72.86c-5.39-.2-9.53,4.44-9.7,4.64a.5.5,0,0,0-.06.58A11.06,11.06,0,0,0,46.45,83h.38a10.19,10.19,0,0,0,8.82-4.73.5.5,0,0,0,0-.52C55.5,77.55,52.44,73.05,47,72.86ZM46.48,82a10.2,10.2,0,0,1-8.13-4.1c1-1,4.46-4.17,8.65-4A10.62,10.62,0,0,1,54.6,78,9.37,9.37,0,0,1,46.48,82Zm30.68-9.12c-5.41.19-8.46,4.68-8.59,4.88a.5.5,0,0,0,0,.52A10.19,10.19,0,0,0,77.37,83h.38a11.06,11.06,0,0,0,9.17-4.9.5.5,0,0,0-.06-.58C86.68,77.3,82.54,72.66,77.16,72.86ZM77.72,82A9.25,9.25,0,0,1,69.59,78a10.62,10.62,0,0,1,7.6-4.18c4.19-.15,7.69,3.06,8.65,4A10.2,10.2,0,0,1,77.72,82ZM126,45.08a5.33,5.33,0,0,0-5.32-5.32h-17.1a120.35,120.35,0,0,0-7.38-28C89.93-3.52,81.12-.42,74,2.07c-.71.25-1.41.5-2.09.71C65.18,5,57,3.22,49.8,1.2,44-.42,38-1.38,33.3,5.94a78.79,78.79,0,0,0-11,33.82h-17a5.32,5.32,0,1,0,0,10.64H120.66A5.33,5.33,0,0,0,126,45.08ZM34.14,6.48C38.1.36,42.78.27,49.53,2.16,56.83,4.22,65.23,6,72.25,3.73c.68-.22,1.39-.47,2.11-.72,7-2.47,15-5.27,20.89,9.1a119.27,119.27,0,0,1,7.3,27.65H23.35A77.72,77.72,0,0,1,34.14,6.48ZM1,45.08a4.33,4.33,0,0,1,4.32-4.32H120.66a4.32,4.32,0,1,1,0,8.64H5.32A4.33,4.33,0,0,1,1,45.08Z"/></g></g></svg>