<svg xmlns="http://www.w3.org/2000/svg" viewBox="0 0 110.53 68"><defs><style>.\33 2a57544-bf06-427c-891d-11e59ba58b7b{fill:#666;fill-rule:evenodd;}</style></defs><title>iwp for teams icon</title><g id="729d23a4-f43e-46b2-bfaf-c9b47d4ab21d" data-name="Layer 2"><g id="c5cdfab4-afb6-40a9-b9e0-d063c389ef4a" data-name="Layer 1"><path class="32a57544-bf06-427c-891d-11e59ba58b7b" d="M23.82,44.9c2.6-2.77,6.3-4.44,10-5.57C31,38.56,30,37.58,30,36.43V35.35s2.49-1.66,3-7.8a4.54,4.54,0,0,0,2-2.63,7.86,7.86,0,0,0,.49-2.73c0-.78-.88-.19-.88-.19a25.18,25.18,0,0,0,.24-3.75c0-2.29-1.22-7.6-5.75-8.14C26,8.4,20.51,7,15.77,10.2,10.6,13.66,13,21.9,13,21.9a.82.82,0,0,0-1.14.72c-.15,1.07.95,4.44,2.75,4.93a16.85,16.85,0,0,0,3.17,7.7v.93a3.27,3.27,0,0,1-1.93,2.53,16.57,16.57,0,0,1-3.5,1c-4.14.83-8.09,2-10.38,4.48S0,50.56.1,52.12s.44,2.1,2.19,3.12c1.56.91,8.2,4.08,18.49,4.63A11.42,11.42,0,0,1,20.46,58C20.26,55.86,19.65,49.35,23.82,44.9Zm84.76-.68c-2.29-2.44-6.24-3.66-10.38-4.48s-5.51-1.95-5.51-3.31V35.35s2.49-1.66,3-7.8a4.54,4.54,0,0,0,2-2.63,7.86,7.86,0,0,0,.49-2.73c0-.78-.88-.19-.88-.19a25.18,25.18,0,0,0,.24-3.75c0-2.29-1.22-7.6-5.75-8.14C88.65,8.4,83.2,7,78.46,10.2c-5.17,3.46-2.78,11.7-2.78,11.7a.82.82,0,0,0-1.14.72c-.15,1.07.95,4.44,2.75,4.93a16.85,16.85,0,0,0,3.17,7.7v.93a3.27,3.27,0,0,1-1.93,2.53,12.68,12.68,0,0,1-1.81.63c3.7,1.12,7.39,2.8,10,5.57,4.18,4.45,3.57,11,3.37,13.1a11.42,11.42,0,0,1-.33,1.88c10.29-.55,16.94-3.73,18.49-4.63,1.75-1,2-1.56,2.19-3.12S110.87,46.66,108.58,44.22ZM70.51,41.38c-5.45-1.09-7.25-2.57-7.25-4.36V35.61s3.27-2.18,3.91-10.26a6,6,0,0,0,2.69-3.46,10.35,10.35,0,0,0,.64-3.59c0-1-1.15-.26-1.15-.26a33.16,33.16,0,0,0,.32-4.94c0-3-1.6-10-7.57-10.71C57.94.14,50.78-1.67,44.54,2.51c-6.8,4.55-3.66,15.39-3.66,15.39a1.08,1.08,0,0,0-1.51,1c-.19,1.41,1.25,5.85,3.62,6.49a22.17,22.17,0,0,0,4.17,10.13V36.7A4.3,4.3,0,0,1,44.63,40,21.79,21.79,0,0,1,40,41.38c-5.45,1.09-10.65,2.69-13.66,5.9s-2.63,8.34-2.44,10.39.58,2.76,2.89,4.11S39.37,68,55.27,68s26.21-4.91,28.46-6.22,2.69-2.05,2.89-4.11.58-7.18-2.44-10.39S76,42.47,70.51,41.38Z"/></g></g></svg>