<svg xmlns="http://www.w3.org/2000/svg" viewBox="0 0 95.5 22.44"><defs><style>.\39 ef49d7a-01e2-4889-ac92-9773ad1fbd1f{fill:#43b19c;}.\30 d7be92d-761c-4f10-b75a-d21dd61f6695{fill:#fff;}</style></defs><title>popupar banner</title><g id="d5249adf-db61-4040-8dd8-d83b1871319a" data-name="Layer 2"><g id="4606e3be-59ce-409d-8bd8-34b299d60b77" data-name="Layer 2"><path class="9ef49d7a-01e2-4889-ac92-9773ad1fbd1f" d="M72.22.3c-2.52,1-6.56,3.29-10.88,5.06-9.37,3.85-20,4.08-29.12-.78-2.29-1.22-4.53-2.79-7.1-4.14a90.78,90.78,0,0,0-9.95,11,73.5,73.5,0,0,0,9.3,5.87c11.58,6,24.35,6.37,36.42,3.13a69,69,0,0,0,12.82-4.89l1-.5c1.8-.92,3.58-1.91,5.37-2.91A76.71,76.71,0,0,0,72.22.3ZM13.34,10.86c2.25-3,4.48-4.68,6.68-7.47A28,28,0,0,0,13.78.77C9.48-.44,8.16,0,3.44.66a23.9,23.9,0,0,0,2.9,3.29C7.32,5,8,6.08,7.72,7.25a25.25,25.25,0,0,0-7.72,5c2.66.58,3.27.61,6,1.31a20.59,20.59,0,0,1,5.63,2.3H14a13.47,13.47,0,0,0-.39-1.68A5.67,5.67,0,0,1,13.34,10.86Zm2,5H17a6.72,6.72,0,0,1,.79-1A14.6,14.6,0,0,1,15,13,6.56,6.56,0,0,0,15.33,15.82Zm62.21,0h2.74a4.64,4.64,0,0,0,.24-1.59,14.61,14.61,0,0,1-3,1.5ZM88.48,9.5c-.18-1.2.67-2.16,1.78-3.1a23.91,23.91,0,0,0,3.3-2.89C89,2.22,87.71,1.64,83.3,2.29a28,28,0,0,0-6.52,1.8c1.82,3.05,3.81,5,5.67,8.26a5.67,5.67,0,0,1-.65,3.22l-.1.24h8.67c2-.22,2.77-.22,5.13-.42A25.25,25.25,0,0,0,88.48,9.5Z"/><path class="0d7be92d-761c-4f10-b75a-d21dd61f6695" d="M30.46,8.84,28.67,8a.16.16,0,0,0-.22.07l-2.5,5a.16.16,0,0,0,.07.22l.7.35a.17.17,0,0,0,.22-.07l.89-1.79,1,.47a1.9,1.9,0,1,0,1.68-3.4Zm-.11,2a.88.88,0,0,1-1.18.4l-.88-.44L29,9.31l.88.44A.85.85,0,0,1,30.35,10.88Zm5.51,0a3.06,3.06,0,1,0,2,3.84A3,3,0,0,0,35.86,10.89Zm1,3.51a2,2,0,1,1-1.29-2.46A2,2,0,0,1,36.82,14.4Zm5.42-2.06-2-.26a.16.16,0,0,0-.18.14l-.73,5.58a.16.16,0,0,0,.14.18l.78.1a.17.17,0,0,0,.18-.14l.26-2,1.05.14a1.9,1.9,0,1,0,.48-3.76Zm-.43,2.72-1-.13.22-1.69,1,.13a.85.85,0,0,1,.76.93A.88.88,0,0,1,41.81,15.06Zm8-2.68-.81,0a.16.16,0,0,0-.15.17L49,16.06a1.24,1.24,0,1,1-2.47.1l-.16-3.47a.16.16,0,0,0-.17-.15l-.81,0a.17.17,0,0,0-.15.17l.16,3.53a2.37,2.37,0,0,0,4.73-.22l-.16-3.53A.17.17,0,0,0,49.77,12.38ZM56,16.43l-2.14.35-.77-4.7a.17.17,0,0,0-.19-.13l-.77.13a.16.16,0,0,0-.13.19l.91,5.55a.16.16,0,0,0,.19.13l3.07-.51a.16.16,0,0,0,.13-.19l-.11-.69A.16.16,0,0,0,56,16.43Zm3.24-5.93a.14.14,0,0,0-.17,0l-.08,0a.15.15,0,0,0-.11.13L58,16.84a.15.15,0,0,0,.2.17l.71-.22a.26.26,0,0,0,.19-.23l.13-1,2.43-.74.67.76a.24.24,0,0,0,.29.09l.71-.22a.15.15,0,0,0,.07-.25Zm.13,4,.25-2h0L61,14Zm10-2-2-1.45A1.87,1.87,0,0,0,67.78,9a1.84,1.84,0,0,0-2.46-.85l-2.19,1a.16.16,0,0,0-.08.22l2.42,5.08a.16.16,0,0,0,.22.08l.71-.34a.17.17,0,0,0,.08-.22l-.93-2,.85-.41,2,1.55a.15.15,0,0,0,.16,0l.81-.38A.16.16,0,0,0,69.36,12.55Zm-3-1.9-1.25.6-.73-1.53,1.25-.6a.84.84,0,0,1,1.11.38A.86.86,0,0,1,66.4,10.65Z"/></g></g></svg>