<svg xmlns="http://www.w3.org/2000/svg" viewBox="0 0 184.23 40.41"><defs><style>.dbd58622-ce60-48bb-aae0-e23162c0753a{isolation:isolate;}.\33 f3a808c-3fd1-4903-83d3-402c387e9efb{fill:#f7f7f7;mix-blend-mode:multiply;}.\33 a85eede-d7e4-4d88-b418-e28c48249c3f{fill:#fafafa;}.\32 9a40bac-d23a-463f-b356-9356e129736c{fill:#c6c6c6;}.f9ed3c6f-e85a-4996-af48-3a2fd67badb4{fill:#43b19c;}</style></defs><title>recommended banner R1</title><g class="dbd58622-ce60-48bb-aae0-e23162c0753a"><g id="7edb0f8a-b4a1-444a-8079-991dfef27275" data-name="Layer 2"><g id="0aea2228-d1ba-47ea-9c6f-59d5dcb2a5a5" data-name="Layer 2"><path class="3f3a808c-3fd1-4903-83d3-402c387e9efb" d="M12.09,39.18a1,1,0,0,0,.89.92c2.29.23,7.8.75,18.33-.42,13.83-1.53,23.56-4.77,37.21-7.28,20.73-3.8,42.11-8.5,63.33-8.88,20.07-.69,28.81.28,35,1.09a1,1,0,0,0,1.11-1l-.49-17.42a1,1,0,0,0-.84-.91c-5.53-.78-10.87-1.54-26.92-1.24C113.86,4.56,88.26,8.67,63,13.64,49.51,16.3,37.47,19.7,23.66,20.79a65.5,65.5,0,0,1-11,0,1,1,0,0,0-1.08,1Z"/><path class="3a85eede-d7e4-4d88-b418-e28c48249c3f" d="M16.12,11.38V10.3a95.23,95.23,0,0,1-14.23-2c1.89,2.33,5.94,7.3,7.49,9a.5.5,0,0,1,0,.71L2.49,24.36c1.46.36,4.63,1.1,8.6,1.79V16.57a1.47,1.47,0,0,1,.32-.91.49.49,0,0,1-.08-.26.5.5,0,0,1,.19-.38Zm152,10.52.49.07a.4.4,0,0,0,.13,0,.56.56,0,0,0,.26-.1.48.48,0,0,0,.13-.21.47.47,0,0,0,0-.16V3.28a.48.48,0,0,0-.4-.48c-1.5-.25-3-.49-4.63-.71l-1.53-.19A176,176,0,0,0,141.83,1h-.19c-7.55,0-15.06.34-22.46.89C99.5,3.37,80.6,6.48,63.95,9.55c-3.87.71-7.66,1.5-11.33,2.25a232.35,232.35,0,0,1-24.21,4.11l-.5.05-.5,0c-1.17.11-2.35.2-3.55.28l-2.4.09h-1c-1.73,0-3.15,0-4.33,0s-1.9-.11-2.65-.19l-.81-.09H12.6a.5.5,0,0,0-.34.13.53.53,0,0,0-.16.36V34.81a.49.49,0,0,0,.43.48c.74.09,1.91.23,3.59.34A95.19,95.19,0,0,0,31,35.19a187.9,187.9,0,0,0,23.15-4c4.59-1,9.34-2,14.66-2.93,3.24-.55,6.49-1.12,9.76-1.7,17.9-3.15,36.41-6.41,54.63-6.41,8.53-.15,15,0,20.23.24l.5,0,.5,0c2.06.12,3.91.26,5.59.42l.5,0,.94.1,2.69.31C165.56,21.53,166.87,21.72,168.11,21.9ZM175,23.58a.5.5,0,0,1,0-.67l5.92-6.61a63,63,0,0,0-10.73-2.71V21.5a1.48,1.48,0,0,1-.48,1.08l.33.55a.5.5,0,0,1-.09.62l-5.8,5.4v.93c6.46.56,13.67,1.4,18.22,2.68C180.48,30.37,176.5,25.3,175,23.58Z"/><path class="29a40bac-d23a-463f-b356-9356e129736c" d="M164.12,1.89h-1.53l1.53.19Z"/><path class="29a40bac-d23a-463f-b356-9356e129736c" d="M184.12,33.41c-.25-.32-5.84-7.52-8.11-10.16l6.11-6.83a.5.5,0,0,0-.18-.79,59.42,59.42,0,0,0-11.78-3.05V3.28a1.5,1.5,0,0,0-1.31-1.48C163.2.87,157.89,0,141.65,0a322.71,322.71,0,0,0-33.56,1.89C92.35,3.55,77.31,6.07,63.77,8.57c-3.88.71-7.68,1.5-11.35,2.26a232.8,232.8,0,0,1-24,4.08L28,15l-.5.05q-1.81.17-3.65.29l-2.35.09h-1c-1.79,0-3.2,0-4.33,0v-4L11.53,15a.5.5,0,0,0-.19.38.49.49,0,0,0,.08.26,1.47,1.47,0,0,0-.32.91v9.58c-4-.7-7.14-1.43-8.6-1.79L9.36,18a.5.5,0,0,0,0-.71c-1.55-1.67-5.6-6.64-7.49-9a95.23,95.23,0,0,0,14.23,2v-1C10.31,8.84,4.1,8.1.66,6.95a.5.5,0,0,0-.55.79C.36,8,6,15,8.31,17.62L1.14,24.25a.5.5,0,0,0,.21.85c.07,0,4.12,1.09,9.75,2.07v7.64a1.49,1.49,0,0,0,1.31,1.47c.76.09,2,.24,3.71.35,1.17.07,2.57.12,4.25.12,2.79,0,6.32-.14,10.7-.56a188.7,188.7,0,0,0,23.27-4c4.58-1,9.32-2,14.61-2.92,3.24-.55,6.5-1.12,9.77-1.7,17.86-3.14,36.33-6.39,54.46-6.39,8.44-.14,14.89,0,20,.24l.5,0,.5,0c2.14.12,4,.27,5.78.43l.5,0,.5.05c1.11.11,2.15.23,3.13.36v6.79l5.8-5.4a.5.5,0,0,0,.09-.62l-.33-.55a1.48,1.48,0,0,0,.48-1.08V13.59a63,63,0,0,1,10.73,2.71L175,22.91a.5.5,0,0,0,0,.67c1.53,1.72,5.52,6.79,7.38,9.17-4.55-1.27-11.76-2.12-18.22-2.68v1c7.17.62,15.23,1.6,19.43,3.1l.17,0a.5.5,0,0,0,.4-.81Zm-15-11.91a.47.47,0,0,1,0,.16.48.48,0,0,1-.13.21.56.56,0,0,1-.26.1.4.4,0,0,1-.13,0l-.49-.07c-1.24-.19-2.55-.38-4-.56L161.44,21l-.94-.1-.5,0c-1.68-.16-3.53-.3-5.59-.42l-.5,0-.5,0c-5.19-.27-11.69-.39-20.23-.24-18.21,0-36.72,3.26-54.63,6.41-3.27.58-6.52,1.15-9.76,1.7-5.32.9-10.06,1.93-14.66,2.93a187.9,187.9,0,0,1-23.15,4,95.19,95.19,0,0,1-14.85.43c-1.68-.1-2.85-.25-3.59-.34a.49.49,0,0,1-.43-.48V16.57a.53.53,0,0,1,.16-.36.5.5,0,0,1,.34-.13h.06l.81.09c.75.07,1.62.14,2.65.19s2.6.07,4.33,0h1l2.4-.09c1.2-.07,2.38-.17,3.55-.28l.5,0,.5-.05A232.35,232.35,0,0,0,52.62,11.8c3.67-.76,7.46-1.54,11.33-2.25C80.6,6.48,99.5,3.37,119.19,1.89c7.4-.56,14.91-.89,22.46-.89h.19a176,176,0,0,1,20.76.89h1.53v.19c1.65.22,3.13.47,4.63.71a.48.48,0,0,1,.4.48Z"/><path class="f9ed3c6f-e85a-4996-af48-3a2fd67badb4" d="M52,22.74a2.16,2.16,0,0,0,1-2.22,2.12,2.12,0,0,0-2.51-1.63l-2.74.56a.19.19,0,0,0-.14.22L48.93,26a.19.19,0,0,0,.22.14L50,26a.19.19,0,0,0,.14-.22l-.5-2.44,1.06-.22,1.79,2.27a.17.17,0,0,0,.17.05l1-.21a.19.19,0,0,0,.11-.31ZM51,22l-1.56.32-.39-1.9,1.56-.32a1,1,0,0,1,1.14.73A1,1,0,0,1,51,22Zm8.76.82L57,23.35l-.33-1.68L59,21.2a.19.19,0,0,0,.15-.22L59,20.19a.19.19,0,0,0-.22-.15l-2.37.47-.31-1.57,2.84-.56a.19.19,0,0,0,.15-.22l-.16-.79a.19.19,0,0,0-.22-.15l-3.9.78a.19.19,0,0,0-.15.22l1.26,6.34a.19.19,0,0,0,.22.15l3.9-.78a.19.19,0,0,0,.15-.22L60,22.93A.19.19,0,0,0,59.79,22.78ZM66.65,21a.18.18,0,0,0-.24,0,2.34,2.34,0,0,1-1.37.81,2.27,2.27,0,0,1-.8-4.46,2.31,2.31,0,0,1,1.58.3.16.16,0,0,0,.24,0l.48-.71a.18.18,0,0,0-.06-.27A3.31,3.31,0,0,0,64,16.15a3.51,3.51,0,1,0,1.23,6.92,3.35,3.35,0,0,0,2.17-1.35.19.19,0,0,0,0-.26Zm4.47-6a3.51,3.51,0,1,0,4.07,2.87A3.5,3.5,0,0,0,71.12,14.92Zm1,5.67a2.24,2.24,0,0,1-.77-4.42,2.24,2.24,0,1,1,.77,4.42ZM82.18,13,82,13a.17.17,0,0,0-.15.12L80.56,18h0l-2.91-4.17a.18.18,0,0,0-.18-.07l-.15,0a.17.17,0,0,0-.15.17l0,6.66a.18.18,0,0,0,.22.19l.87-.15a.19.19,0,0,0,.15-.17l-.08-3.74h0l2.36,3.48a.17.17,0,0,0,.18.08l.17,0a.17.17,0,0,0,.15-.13l1-4.07h0l1.2,3.54a.21.21,0,0,0,.21.11l.88-.15a.17.17,0,0,0,.13-.25l-2.26-6.26A.16.16,0,0,0,82.18,13Zm9.12-1.54-.15,0a.17.17,0,0,0-.15.12l-1.37,4.9h0l-2.87-4.2a.18.18,0,0,0-.18-.07l-.15,0a.17.17,0,0,0-.15.17l-.08,6.67a.18.18,0,0,0,.22.19l.87-.14a.19.19,0,0,0,.15-.17l0-3.75h0l2.33,3.51a.18.18,0,0,0,.18.08l.17,0a.17.17,0,0,0,.15-.13l1.06-4.07h0l1.17,3.56a.21.21,0,0,0,.21.11l.88-.14a.17.17,0,0,0,.14-.25l-2.2-6.29A.16.16,0,0,0,91.29,11.44ZM99.64,16l-2.86.42-.25-1.69,2.39-.35a.19.19,0,0,0,.16-.21l-.12-.8a.19.19,0,0,0-.21-.16l-2.39.35L96.12,12,99,11.56a.18.18,0,0,0,.16-.21L99,10.56a.19.19,0,0,0-.21-.16L94.87,11a.19.19,0,0,0-.16.21l.95,6.39a.19.19,0,0,0,.21.16l3.93-.58A.18.18,0,0,0,100,17l-.12-.79A.19.19,0,0,0,99.64,16Zm7.08-6.65-.89.11a.19.19,0,0,0-.16.21l.51,4h0L101.59,9.9l-.24,0a.18.18,0,0,0-.16.2l.83,6.52a.19.19,0,0,0,.21.16l.88-.11a.18.18,0,0,0,.16-.21l-.53-4.17h0l4.62,3.93.23,0a.18.18,0,0,0,.16-.2l-.83-6.52A.19.19,0,0,0,106.72,9.35ZM112,8.77l-2.3.23a.18.18,0,0,0-.16.2l.64,6.43a.18.18,0,0,0,.19.17l2.3-.23a3.42,3.42,0,1,0-.67-6.8Zm.44,5.63-1.11.11-.44-4.44L112,10a2.15,2.15,0,0,1,2.41,2A2.16,2.16,0,0,1,112.49,14.4Zm9.76-.75-2.89.19-.11-1.71,2.41-.16a.19.19,0,0,0,.17-.2l-.05-.81a.19.19,0,0,0-.2-.17l-2.41.16-.1-1.6L122,9.16a.19.19,0,0,0,.17-.2l-.05-.8a.19.19,0,0,0-.2-.17l-4,.26a.19.19,0,0,0-.17.2l.42,6.45a.19.19,0,0,0,.2.17l4-.26a.19.19,0,0,0,.17-.2l-.05-.8A.19.19,0,0,0,122.25,13.64Zm4.7-5.85-2.31.06a.18.18,0,0,0-.17.19l.17,6.46a.18.18,0,0,0,.18.18l2.31-.06a3.42,3.42,0,1,0-.18-6.84Zm0,5.65-1.11,0L125.75,9l1.11,0a2.15,2.15,0,0,1,2.26,2.17A2.16,2.16,0,0,1,127,13.44Z"/></g></g></g></svg>