<svg xmlns="http://www.w3.org/2000/svg" viewBox="0 0 21 18"><defs><style>.\37 8ba73c5-fb7a-4c64-b94c-3768abf5a9ad{fill:#666;}</style></defs><title>starter</title><g id="976ced38-cec4-44d8-ba58-3cf7286354a7" data-name="Layer 2"><g id="c3d6328e-a78e-4a88-906e-c5550002d293" data-name="Layer 2"><path class="78ba73c5-fb7a-4c64-b94c-3768abf5a9ad" d="M16.7,9.4h0l-.11-1.08a.5.5,0,0,0-1,.11l.12,1.11a4.25,4.25,0,1,0,1-.14Zm0,7.6A3.3,3.3,0,1,1,20,13.7,3.3,3.3,0,0,1,16.7,17ZM4.3,9.4a4.3,4.3,0,1,0,4.3,4.3A4.3,4.3,0,0,0,4.3,9.4Zm0,7.6a3.3,3.3,0,1,1,3.3-3.3A3.3,3.3,0,0,1,4.3,17ZM12.57,4.29a2.14,2.14,0,1,0-2.14-2.14A2.15,2.15,0,0,0,12.57,4.29Zm0-3.29a1.14,1.14,0,1,1-1.14,1.14A1.14,1.14,0,0,1,12.57,1Zm3.89,6.11a.5.5,0,0,0-.25-1s-2.41.61-3.94-.31a2.58,2.58,0,0,1-1.19-1.72.5.5,0,0,0-.84-.24S9.12,5,7.48,6.66A1.62,1.62,0,0,0,7.58,9a5.75,5.75,0,0,1,2.09,6,.5.5,0,0,0,.34.62l.14,0a.5.5,0,0,0,.48-.36,6.7,6.7,0,0,0-2.4-7.07A.63.63,0,0,1,8,7.82a.61.61,0,0,1,.18-.46l2.19-2.21a3.45,3.45,0,0,0,1.38,1.54C13.66,7.83,16.35,7.14,16.47,7.11Z"/></g></g></svg>