<svg xmlns="http://www.w3.org/2000/svg" viewBox="0 0 32.61 26.29"><defs><style>.\33 4b97b72-890e-42d5-9cb0-bc841dc0a4de{fill:#7fcecd;}</style></defs><title>Asset 1</title><g id="b8b0e6ac-3c22-42fe-bb43-a12ebd16929b" data-name="Layer 2"><g id="4c7c03e9-9ebe-4484-a5d0-06cbc2c3c3f3" data-name="Layer 1"><path class="34b97b72-890e-42d5-9cb0-bc841dc0a4de" d="M21.75,13.42l-1.19,3.32h2.49l-1.27-3.32Zm.14-5.51C16,7.91,11.18,11.55,11.18,16a7.39,7.39,0,0,0,3.48,6,.5.5,0,0,1,.22.41v3.37a.49.49,0,0,0,.74.43L19.39,24a.49.49,0,0,1,.32-.06,14.06,14.06,0,0,0,2.18.17c5.92,0,10.71-3.63,10.71-8.12S27.81,7.91,21.9,7.91ZM24.56,20.7l-.86-2.25H20l-.8,2.25H16.77l4.11-9.95h2L27,20.7ZM9.9,9.19a6.32,6.32,0,0,0,2.4-3.29H7.51A6.32,6.32,0,0,0,9.9,9.19Zm0,1.92A9.8,9.8,0,0,1,5.2,12.19V10.5A8.37,8.37,0,0,0,8.33,10a8.74,8.74,0,0,1-2.49-4.1H4.76V4.24H9.08V3.12H10.7V4.24H15V5.91H14A8.74,8.74,0,0,1,11.48,10l.32.11a11.23,11.23,0,0,1,1.42-1.28,14.22,14.22,0,0,1,7.87-2.73C19.91,2.6,15.72,0,10.71,0,4.8,0,0,3.63,0,8.12A7.36,7.36,0,0,0,3.4,14a.5.5,0,0,1,.21.41v3.45a.49.49,0,0,0,.74.43l3.83-2.22a.49.49,0,0,1,.33-.06l.85.11s0-.09,0-.14a8.32,8.32,0,0,1,1.36-4.54A8.25,8.25,0,0,1,9.9,11.11Z"/></g></g></svg>